Coordinates
version=1
nRows=10
nColumns=40
inDegrees=yes

Units are S.I. units (second, meters, Newtons, ...)
Angles are in degrees.

endheader
time	pelvis_tilt	pelvis_list	pelvis_rotation	pelvis_tx	pelvis_ty	pelvis_tz	hip_flexion_r	hip_adduction_r	hip_rotation_r	knee_angle_r	knee_angle_r_beta	ankle_angle_r	subtalar_angle_r	mtp_angle_r	hip_flexion_l	hip_adduction_l	hip_rotation_l	knee_angle_l	knee_angle_l_beta	ankle_angle_l	subtalar_angle_l	mtp_angle_l	lumbar_extension	lumbar_bending	lumbar_rotation	arm_flex_r	arm_add_r	arm_rot_r	elbow_flex_r	pro_sup_r	wrist_flex_r	wrist_dev_r	arm_flex_l	arm_add_l	arm_rot_l	elbow_flex_l	pro_sup_l	wrist_flex_l	wrist_dev_l
      0.00000000	     -6.66072574	      2.95066099	    -10.89928130	     -1.26061509	      0.87234450	      1.45629975	      9.18459364	     -3.43019577	    -17.61612963	    -26.39521887	     -0.46068348	     15.58773561	     -7.80417764	      1.84987974	     35.50310691	      3.54955298	     21.95766214	    -23.47225556	     -0.40966814	      6.82423208	      9.72092249	     -0.51648046	     -3.14151882	     -0.20366459	     -0.93695662	      5.12096080	    -10.58991916	    -11.62117847	     35.04946432	     89.95437384	      0.00000000	      0.00000000	     -3.83132614	      7.80662646	     20.35749052	     24.11868478	     89.95437384	      0.00000000	      0.00000000
      0.01000000	     -6.80422545	      2.83345990	    -10.82506328	     -1.25514762	      0.87150245	      1.45685055	      8.93225544	     -3.39079638	    -17.76291768	    -26.40709356	     -0.46089073	     15.66262306	     -7.78719385	      1.81400593	     35.76878652	      3.74932037	     22.07196011	    -23.15544200	     -0.40413870	      6.91417007	      9.68316287	     -0.50197487	     -3.00314743	     -0.12623675	     -0.82199081	      5.24971128	    -10.54753469	    -11.62921863	     35.07040975	     89.95437384	      0.00000000	      0.00000000	     -3.95023721	      7.78271444	     20.32435897	     24.00326632	     89.95437384	      0.00000000	      0.00000000
      0.02000000	     -6.76300026	      2.71493740	    -10.88900735	     -1.24980166	      0.87104208	      1.45742227	      8.45942787	     -3.28524178	    -17.50710839	    -26.39812360	     -0.46073417	     15.79002427	     -7.63422194	      1.73181398	     35.73558566	      3.88520122	     21.83937699	    -22.83616865	     -0.39856633	      6.93297204	      9.62514965	     -0.48048222	     -3.09121700	     -0.08373836	     -0.51817011	      5.46555639	    -10.50485321	    -11.70533335	     34.96863400	     89.95437384	      0.00000000	      0.00000000	     -3.79342135	      7.75829854	     20.31848984	     23.54532366	     89.95437384	      0.00000000	      0.00000000
      0.03000000	     -6.83651517	      2.64628097	    -10.85520974	     -1.24388481	      0.87024994	      1.45788189	      8.06058471	     -3.26946461	    -17.59114410	    -26.46887178	     -0.46196896	     15.94527574	     -7.59249582	      1.69633003	     35.85348861	      4.00456935	     21.82616601	    -22.76754718	     -0.39736866	      6.92184910	      9.67664526	     -0.44739239	     -2.96078813	     -0.07643927	     -0.37707623	      5.52055050	    -10.43440531	    -11.72755935	     35.01439669	     89.95437384	      0.00000000	      0.00000000	     -3.86962946	      7.73621297	     20.30341264	     23.37516741	     89.95437384	      0.00000000	      0.00000000
      0.04000000	     -6.90851020	      2.62927061	    -10.84589129	     -1.23788261	      0.86937675	      1.45838111	      7.77583207	     -3.33102412	    -17.47899979	    -26.69808564	     -0.46596950	     15.80723951	     -7.45279597	      1.65965386	     35.98956352	      4.06545518	     21.55199655	    -22.93128215	     -0.40022638	      6.80099163	      9.54743316	     -0.42310327	     -2.83155182	     -0.16237319	     -0.23609112	      5.48579890	    -10.34452313	    -11.68965729	     35.18561930	     89.95437384	      0.00000000	      0.00000000	     -4.08821310	      7.75306984	     20.26184631	     23.43330677	     89.95437384	      0.00000000	      0.00000000
      0.05000000	     -6.63671400	      2.46265608	    -10.82458789	     -1.23159621	      0.86922357	      1.45875565	      6.90607383	     -3.23370866	    -17.36015362	    -26.52845395	     -0.46300887	     16.31767063	     -7.46838885	      1.60416972	     35.71932223	      4.15397309	     21.18734959	    -23.33536028	     -0.40727887	      6.96994984	     10.28012806	     -0.32346943	     -3.09700582	     -0.12864554	     -0.00678688	      5.58589250	    -10.24194002	    -11.94198240	     35.09497377	     89.95437384	      0.00000000	      0.00000000	     -3.88106848	      7.72939812	     20.30695704	     22.89722139	     89.95437384	      0.00000000	      0.00000000
      0.06000000	     -6.48988830	      2.22577233	    -10.85923566	     -1.22514729	      0.86888093	      1.45914269	      6.24599664	     -3.09049129	    -17.25998593	    -26.45395250	     -0.46170857	     16.10261748	     -7.44536226	      1.53105669	     35.43545922	      4.25190321	     20.55161080	    -23.55543951	     -0.41111998	      7.27754075	     11.10604642	     -0.17633270	     -3.22546495	     -0.00131865	      0.25107089	      5.57578467	    -10.18313023	    -12.08558466	     35.11701698	     89.95437384	      0.00000000	      0.00000000	     -3.90663405	      7.66568244	     20.37430134	     22.76493472	     89.95437384	      0.00000000	      0.00000000
      0.07000000	     -6.60568341	      2.23830742	    -10.87292066	     -1.21862266	      0.86794944	      1.45933000	      6.04867014	     -3.19143475	    -17.08203487	    -26.76079603	     -0.46706400	     15.80524706	     -7.27229605	      1.49473705	     35.43317795	      4.20959980	     20.16691355	    -23.86359516	     -0.41649831	      7.04879302	     10.84793265	     -0.15335066	     -2.97479588	     -0.09935468	      0.38183864	      5.42682133	    -10.11927105	    -12.00253483	     35.31253699	     89.95437384	      0.00000000	      0.00000000	     -4.18425849	      7.65332835	     20.31705740	     22.92791660	     89.95437384	      0.00000000	      0.00000000
      0.08000000	     -6.33324119	      2.11546582	    -10.79391498	     -1.21175257	      0.86776835	      1.45931758	      5.16406472	     -3.16335829	    -17.01847491	    -26.62176919	     -0.46463753	     15.83908685	     -7.98508490	      1.52017550	     34.98868796	      3.96933020	     19.09795907	    -24.26678451	     -0.42353529	      7.17351725	     12.61543095	      0.26189723	     -3.16723391	     -0.12794745	      0.53710992	      5.37996572	    -10.09533538	    -11.97537480	     35.25005926	     89.95437384	      0.00000000	      0.00000000	     -4.07199947	      7.61109669	     20.46904272	     22.56743216	     89.95437384	      0.00000000	      0.00000000
      0.09000000	     -6.45138856	      2.10933715	    -10.84254379	     -1.20488915	      0.86686194	      1.45938648	      4.96355481	     -3.28026320	    -16.86133411	    -26.94805765	     -0.47033233	     15.54717000	     -7.79992989	      1.48467226	     34.89972782	      3.91474427	     18.70346852	    -24.67312491	     -0.43062727	      6.93567578	     12.30385686	      0.27990035	     -2.87584134	     -0.21243292	      0.70628782	      5.18881482	    -10.03197030	    -11.89142232	     35.38526003	     89.95437384	      0.00000000	      0.00000000	     -4.34482951	      7.60022504	     20.41054353	     22.71691009	     89.95437384	      0.00000000	      0.00000000
